<?xml version="1.0" encoding="UTF-8" standalone="no"?>
<!DOCTYPE svg PUBLIC "-//W3C//DTD SVG 1.1//EN"
 "http://www.w3.org/Graphics/SVG/1.1/DTD/svg11.dtd">
<!-- Generated by graphviz version 2.43.0 (0)
 -->
<!-- Title: Graphical Class Hierarchy Pages: 1 -->
<svg width="391pt" height="137pt"
 viewBox="0.00 0.00 391.00 137.00" xmlns="http://www.w3.org/2000/svg" xmlns:xlink="http://www.w3.org/1999/xlink">
<g id="graph0" class="graph" transform="scale(1 1) rotate(0) translate(4 133)">
<title>Graphical Class Hierarchy</title>
<!-- Node0 -->
<g id="node1" class="node">
<title>Node0</title>
<g id="a_node1"><a xlink:href="classrobowflex_1_1BenchmarkOutputter.html" target="_top" xlink:title="An abstract class for outputting benchmark results.">
<polygon fill="none" stroke="black" points="0,-55 0,-74 173,-74 173,-55 0,-55"/>
<text text-anchor="middle" x="86.5" y="-62" font-family="Roboto" font-size="10.00">robowflex::BenchmarkOutputter</text>
</a>
</g>
</g>
<!-- Node1 -->
<g id="node2" class="node">
<title>Node1</title>
<g id="a_node2"><a xlink:href="classrobowflex_1_1JSONBenchmarkOutputter.html" target="_top" xlink:title="A benchmark outputter for storing data in a single JSON file.">
<polygon fill="none" stroke="black" points="221,-98.5 221,-128.5 371,-128.5 371,-98.5 221,-98.5"/>
<text text-anchor="start" x="229" y="-116.5" font-family="Roboto" font-size="10.00">robowflex::JSONBenchmark</text>
<text text-anchor="middle" x="296" y="-105.5" font-family="Roboto" font-size="10.00">Outputter</text>
</a>
</g>
</g>
<!-- Node0&#45;&gt;Node1 -->
<g id="edge1" class="edge">
<title>Node0&#45;&gt;Node1</title>
<path fill="none" stroke="midnightblue" d="M138.01,-76.43C166.1,-83.06 201.35,-91.39 231.32,-98.46"/>
<polygon fill="midnightblue" stroke="midnightblue" points="138.54,-72.96 128,-74.06 136.93,-79.77 138.54,-72.96"/>
</g>
<!-- Node2 -->
<g id="node3" class="node">
<title>Node2</title>
<g id="a_node3"><a xlink:href="classrobowflex_1_1OMPLBenchmarkOutputter.html" target="_top" xlink:title="Benchmark outputter that saves results into OMPL benchmarking log files. If ompl_benchmark_statistics...">
<polygon fill="none" stroke="black" points="219,-49.5 219,-79.5 373,-79.5 373,-49.5 219,-49.5"/>
<text text-anchor="start" x="227" y="-67.5" font-family="Roboto" font-size="10.00">robowflex::OMPLBenchmark</text>
<text text-anchor="middle" x="296" y="-56.5" font-family="Roboto" font-size="10.00">Outputter</text>
</a>
</g>
</g>
<!-- Node0&#45;&gt;Node2 -->
<g id="edge2" class="edge">
<title>Node0&#45;&gt;Node2</title>
<path fill="none" stroke="midnightblue" d="M183.12,-64.5C195.12,-64.5 207.26,-64.5 218.89,-64.5"/>
<polygon fill="midnightblue" stroke="midnightblue" points="183.1,-61 173.1,-64.5 183.1,-68 183.1,-61"/>
</g>
<!-- Node3 -->
<g id="node4" class="node">
<title>Node3</title>
<g id="a_node4"><a xlink:href="classrobowflex_1_1TrajectoryBenchmarkOutputter.html" target="_top" xlink:title="Benchmark outputter that saves each trajectory from each run to a rosbag file.">
<polygon fill="none" stroke="black" points="209,-0.5 209,-30.5 383,-30.5 383,-0.5 209,-0.5"/>
<text text-anchor="start" x="217" y="-18.5" font-family="Roboto" font-size="10.00">robowflex::TrajectoryBenchmark</text>
<text text-anchor="middle" x="296" y="-7.5" font-family="Roboto" font-size="10.00">Outputter</text>
</a>
</g>
</g>
<!-- Node0&#45;&gt;Node3 -->
<g id="edge3" class="edge">
<title>Node0&#45;&gt;Node3</title>
<path fill="none" stroke="midnightblue" d="M138.01,-52.57C166.1,-45.94 201.35,-37.61 231.32,-30.54"/>
<polygon fill="midnightblue" stroke="midnightblue" points="136.93,-49.23 128,-54.94 138.54,-56.04 136.93,-49.23"/>
</g>
</g>
</svg>
